<?xml version="1.0" standalone="no"?>
<!DOCTYPE svg PUBLIC "-//W3C//DTD SVG 20010904//EN"
 "http://www.w3.org/TR/2001/REC-SVG-20010904/DTD/svg10.dtd">
<svg version="1.0" xmlns="http://www.w3.org/2000/svg"
 width="900.000000pt" height="507.000000pt" viewBox="0 0 900.000000 507.000000"
 preserveAspectRatio="xMidYMid meet">
<metadata>
Created by potrace 1.10, written by Peter Selinger 2001-2011
</metadata>
<g transform="translate(0.000000,507.000000) scale(0.100000,-0.100000)"
fill="#581c87" stroke="none">
<path d="M8725 3100 c-33 -4 -105 -13 -159 -19 -54 -6 -113 -15 -130 -20 -17
-6 -56 -14 -86 -20 -113 -20 -165 -33 -174 -42 -6 -5 -19 -9 -30 -9 -23 0
-220 -64 -248 -80 -10 -6 -23 -10 -28 -10 -6 0 -32 -9 -58 -21 -26 -11 -56
-24 -67 -28 -140 -59 -388 -197 -530 -296 -63 -44 -192 -142 -205 -155 -3 -3
-41 -36 -85 -75 -150 -132 -376 -376 -419 -454 -5 -9 -13 -18 -16 -21 -12 -8
-158 -226 -190 -283 -29 -52 -150 -295 -175 -352 -38 -85 -45 -104 -45 -117 0
-8 -4 -18 -9 -24 -7 -8 -42 -116 -95 -293 -9 -29 -16 -62 -16 -73 0 -11 -4
-27 -9 -37 -5 -9 -14 -46 -19 -82 -6 -35 -15 -93 -21 -129 -14 -94 -30 -239
-37 -358 l-6 -102 300 0 301 0 4 143 c4 131 16 225 49 397 7 36 16 70 19 75 4
6 10 26 14 45 8 43 34 124 52 167 7 17 13 38 13 46 0 9 4 18 9 21 5 3 12 18
16 33 15 63 118 266 209 414 143 231 395 503 616 667 69 51 130 96 135 100 56
42 279 160 400 212 28 12 59 25 70 30 24 10 178 60 255 82 82 24 147 38 225
49 39 5 84 14 100 19 17 5 101 12 188 15 l157 7 0 294 0 294 -107 -2 c-60 0
-135 -4 -168 -8z"/>
<path d="M8770 1720 c-114 -19 -177 -32 -205 -40 -173 -49 -174 -50 -335 -124
-358 -166 -670 -493 -839 -878 -12 -26 -21 -53 -21 -60 0 -8 -4 -18 -9 -23 -5
-6 -18 -44 -30 -85 -12 -41 -28 -97 -36 -124 -8 -26 -15 -63 -15 -81 0 -19 -4
-45 -9 -58 -6 -14 -13 -75 -17 -136 l-7 -111 877 0 876 0 0 865 0 865 -92 -1
c-51 -1 -113 -5 -138 -9z"/>
</g>
</svg>
